<?xml version="1.0" standalone="no"?>
<!DOCTYPE svg PUBLIC "-//W3C//DTD SVG 20010904//EN"
 "http://www.w3.org/TR/2001/REC-SVG-20010904/DTD/svg10.dtd">
<svg version="1.0" xmlns="http://www.w3.org/2000/svg"
 width="1313.000000pt" height="1313.000000pt" viewBox="0 0 1313.000000 1313.000000"
 preserveAspectRatio="xMidYMid meet">
<metadata>
Created by potrace 1.11, written by Peter Selinger 2001-2013
</metadata>
<g transform="translate(0.000000,1313.000000) scale(0.100000,-0.100000)"
fill="#000000" stroke="none">
<path d="M1772 11493 l3 -47 93 -13 c201 -29 438 -115 565 -207 122 -87 189
-178 221 -304 51 -194 50 -154 53 -1857 5 -2320 -13 -3065 -82 -3399 -39 -186
-72 -254 -171 -344 -126 -117 -354 -211 -654 -272 l-85 -17 -3 -47 -3 -46
1560 0 1561 0 0 -62 c0 -167 58 -517 124 -745 103 -358 283 -710 503 -983 470
-585 1207 -940 2168 -1046 197 -21 667 -30 846 -15 580 48 1229 233 1779 507
102 51 213 110 247 133 l62 40 4 848 c4 915 3 908 57 1014 60 116 219 199 470
245 l90 17 0 43 0 44 -1220 0 -1220 0 0 -43 0 -43 115 -18 c253 -37 415 -106
535 -226 178 -177 214 -331 214 -915 0 -435 -29 -716 -92 -881 -61 -162 -258
-358 -469 -467 -258 -133 -578 -196 -943 -184 -354 11 -645 80 -914 214 -432
216 -757 552 -986 1018 -206 419 -302 814 -345 1422 l-5 83 875 0 875 0 5 22
c3 13 77 426 165 918 88 492 163 907 166 921 5 24 1 28 -41 42 l-46 16 -14
-32 c-8 -18 -53 -122 -101 -232 -146 -339 -226 -486 -364 -670 -182 -243 -424
-443 -683 -565 -193 -91 -458 -171 -677 -205 -58 -8 -117 -18 -132 -20 l-28
-4 0 62 c0 104 20 334 41 482 100 692 384 1311 799 1739 142 147 235 224 392
329 387 258 815 369 1309 338 350 -23 613 -89 894 -226 431 -210 722 -512 986
-1020 98 -189 178 -396 229 -592 l11 -43 49 0 50 0 0 911 0 910 -37 -3 c-35
-3 -44 -12 -163 -168 -75 -98 -134 -166 -146 -168 -10 -1 -62 23 -114 54 -388
230 -926 403 -1460 469 -172 22 -663 31 -865 16 -679 -50 -1191 -218 -1680
-552 -753 -513 -1231 -1362 -1314 -2334 -6 -66 -11 -151 -11 -188 l0 -68 -47
5 c-27 3 -95 11 -153 17 -131 13 -361 52 -460 78 -102 26 -226 75 -275 109
-87 61 -127 208 -145 532 -39 708 -39 3745 0 4720 7 187 13 250 30 308 67 238
240 407 520 506 41 15 149 42 240 60 l165 33 3 47 3 46 -1466 0 -1466 0 3 -47z"/>
</g>
</svg>
