<?xml version="1.0" encoding="utf-8"?>
<!-- Generator: Adobe Illustrator 23.0.2, SVG Export Plug-In . SVG Version: 6.00 Build 0)  -->
<svg version="1.1" id="Calque_1" xmlns="http://www.w3.org/2000/svg" xmlns:xlink="http://www.w3.org/1999/xlink" x="0px" y="0px"
	 viewBox="0 0 25.9 24.5" style="enable-background:new 0 0 25.9 24.5;" xml:space="preserve">
<style type="text/css">
	.st0{stroke:#FFFFFF;stroke-miterlimit:10;}
</style>
<path class="st0" d="M23.3,7h-7V5h7V7z M25,17c-0.4,1.3-2,3-5.1,3s-5.6-1.7-5.6-5.7c0-3.9,2.3-5.9,5.5-5.9c3.1,0,5,1.8,5.4,4.4
	c0.1,0.5,0.1,1.2,0.1,2.2h-8c0.1,3.2,3.5,3.3,4.6,2H25z M17.3,13h5c-0.1-1.5-1.1-2.2-2.5-2.2S17.6,11.5,17.3,13z M7.8,20H1.3V5h7
	c5.5,0.1,5.6,5.4,2.7,6.9C14.4,13.2,14.5,20,7.8,20z M4.3,11h3.6c2.5,0,2.9-3-0.3-3H4.3V11z M7.7,14H4.3v3h3.3
	C10.7,17,10.5,14,7.7,14z"/>
</svg>
